<svg width="640" height="760" viewBox="0 0 640 760" fill="none" xmlns="http://www.w3.org/2000/svg">
  <rect width="640" height="760" rx="32" fill="#111111"/>
  <rect x="28" y="28" width="584" height="704" rx="28" fill="url(#a)"/>
  <circle cx="320" cy="278" r="124" fill="#E7D4B8"/>
  <path d="M204 548C222 469 270 428 320 428C370 428 418 469 436 548" stroke="#F7F0E7" stroke-width="34" stroke-linecap="round"/>
  <path d="M240 278C240 211.726 293.726 158 360 158C404.183 158 442.792 181.835 463.638 217.333C449.93 141.457 384.01 84 304 84C214.544 84 142 156.544 142 246C142 322.673 195.3 386.895 266.995 403.637C250.068 384.297 240 359.036 240 331.5V278Z" fill="#241A16"/>
  <path d="M190 612H450" stroke="#C9AA74" stroke-width="10" stroke-linecap="round"/>
  <text x="320" y="664" text-anchor="middle" fill="#F7F0E7" font-size="40" font-family="Georgia, serif">Tejaswi Murali</text>
  <defs>
    <linearGradient id="a" x1="76" y1="72" x2="572" y2="688" gradientUnits="userSpaceOnUse">
      <stop stop-color="#5E3D25"/>
      <stop offset="1" stop-color="#201712"/>
    </linearGradient>
  </defs>
</svg>
